REM DIRINDEX 1\2,1\3,1\4,1\5,1\6
REM DIRNAME cjc030,folder01,folder02,folder03,folder04,folder05
TITLE ""
FILE "Disc6Track31.mp3" MP3
  TRACK 01 AUDIO
    TITLE "3:cjc030_11394"
    INDEX 01 00:00:00
  TRACK 02 AUDIO
    TITLE "0:"
    INDEX 01 00:01:17
  TRACK 03 AUDIO
    TITLE "4:cjc030_11395"
    INDEX 01 00:01:26
  TRACK 04 AUDIO
    TITLE "0:"
    INDEX 01 00:03:19
  TRACK 05 AUDIO
    TITLE "5:cjc030_11396"
    INDEX 01 00:03:29
  TRACK 06 AUDIO
    TITLE "0:"
    INDEX 01 00:04:48
  TRACK 07 AUDIO
    TITLE "6:cjc030_11397"
    INDEX 01 00:04:58
  TRACK 08 AUDIO
    TITLE "0:"
    INDEX 01 00:06:41
  TRACK 09 AUDIO
    TITLE "3:cjc030_11398"
    INDEX 01 00:07:11
  TRACK 10 AUDIO
    TITLE "0:"
    INDEX 01 00:08:30
  TRACK 11 AUDIO
    TITLE "4:cjc030_11399"
    INDEX 01 00:08:42
  TRACK 12 AUDIO
    TITLE "0:"
    INDEX 01 00:09:63
  TRACK 13 AUDIO
    TITLE "5:cjc030_11400"
    INDEX 01 00:09:73
  TRACK 14 AUDIO
    TITLE "0:"
    INDEX 01 00:11:17
  TRACK 15 AUDIO
    TITLE "6:cjc030_11401"
    INDEX 01 00:11:29
  TRACK 16 AUDIO
    TITLE "0:"
    INDEX 01 00:15:30
  TRACK 17 AUDIO
    TITLE "3:cjc030_11402"
    INDEX 01 00:16:00
  TRACK 18 AUDIO
    TITLE "0:"
    INDEX 01 00:17:14
  TRACK 19 AUDIO
    TITLE "4:cjc030_11403"
    INDEX 01 00:17:23
  TRACK 20 AUDIO
    TITLE "0:"
    INDEX 01 00:18:23
  TRACK 21 AUDIO
    TITLE "5:cjc030_11404"
    INDEX 01 00:18:33
  TRACK 22 AUDIO
    TITLE "0:"
    INDEX 01 00:19:48
  TRACK 23 AUDIO
    TITLE "3:cjc030_11405"
    INDEX 01 00:20:28
  TRACK 24 AUDIO
    TITLE "0:"
    INDEX 01 00:21:35
  TRACK 25 AUDIO
    TITLE "4:cjc030_11406"
    INDEX 01 00:21:43
  TRACK 26 AUDIO
    TITLE "0:"
    INDEX 01 00:23:65
  TRACK 27 AUDIO
    TITLE "5:cjc030_11407"
    INDEX 01 00:24:00
  TRACK 28 AUDIO
    TITLE "0:"
    INDEX 01 00:25:05
  TRACK 29 AUDIO
    TITLE "6:cjc030_11408"
    INDEX 01 00:25:17
  TRACK 30 AUDIO
    TITLE "0:"
    INDEX 01 00:28:55
  TRACK 31 AUDIO
    TITLE "3:cjc030_11409"
    INDEX 01 00:29:25
  TRACK 32 AUDIO
    TITLE "0:"
    INDEX 01 00:31:59
  TRACK 33 AUDIO
    TITLE "4:cjc030_11410"
    INDEX 01 00:31:69
  TRACK 34 AUDIO
    TITLE "0:"
    INDEX 01 00:35:37
  TRACK 35 AUDIO
    TITLE "5:cjc030_11411"
    INDEX 01 00:35:41
  TRACK 36 AUDIO
    TITLE "0:"
    INDEX 01 00:38:10
  TRACK 37 AUDIO
    TITLE "3:cjc030_11412"
    INDEX 01 00:38:61
  TRACK 38 AUDIO
    TITLE "0:"
    INDEX 01 00:39:64
  TRACK 39 AUDIO
    TITLE "4:cjc030_11413"
    INDEX 01 00:39:74
  TRACK 40 AUDIO
    TITLE "0:"
    INDEX 01 00:42:23
  TRACK 41 AUDIO
    TITLE "5:cjc030_11414"
    INDEX 01 00:42:33
  TRACK 42 AUDIO
    TITLE "0:"
    INDEX 01 00:43:35
  TRACK 43 AUDIO
    TITLE "6:cjc030_11415"
    INDEX 01 00:43:48
  TRACK 44 AUDIO
    TITLE "0:"
    INDEX 01 00:45:20
  TRACK 45 AUDIO
    TITLE "3:cjc030_11416"
    INDEX 01 00:45:67
  TRACK 46 AUDIO
    TITLE "0:"
    INDEX 01 00:46:74
  TRACK 47 AUDIO
    TITLE "4:cjc030_11417"
    INDEX 01 00:47:09
  TRACK 48 AUDIO
    TITLE "0:"
    INDEX 01 00:49:31
  TRACK 49 AUDIO
    TITLE "5:cjc030_11418"
    INDEX 01 00:49:41
  TRACK 50 AUDIO
    TITLE "0:"
    INDEX 01 00:50:50
  TRACK 51 AUDIO
    TITLE "6:cjc030_11419"
    INDEX 01 00:50:60
  TRACK 52 AUDIO
    TITLE "0:"
    INDEX 01 00:55:73
  TRACK 53 AUDIO
    TITLE "3:cjc030_11420"
    INDEX 01 00:56:45
  TRACK 54 AUDIO
    TITLE "0:"
    INDEX 01 00:57:41
  TRACK 55 AUDIO
    TITLE "4:cjc030_11421"
    INDEX 01 00:57:52
  TRACK 56 AUDIO
    TITLE "0:"
    INDEX 01 00:58:52
  TRACK 57 AUDIO
    TITLE "5:cjc030_11422"
    INDEX 01 00:58:60
  TRACK 58 AUDIO
    TITLE "0:"
    INDEX 01 00:59:59
  TRACK 59 AUDIO
    TITLE "6:cjc030_11423"
    INDEX 01 00:59:69
  TRACK 60 AUDIO
    TITLE "0:"
    INDEX 01 01:03:29
  TRACK 61 AUDIO
    TITLE "3:cjc030_11424"
    INDEX 01 01:04:01
  TRACK 62 AUDIO
    TITLE "0:"
    INDEX 01 01:05:38
  TRACK 63 AUDIO
    TITLE "4:cjc030_11425"
    INDEX 01 01:05:48
  TRACK 64 AUDIO
    TITLE "0:"
    INDEX 01 01:06:49
  TRACK 65 AUDIO
    TITLE "5:cjc030_11426"
    INDEX 01 01:06:55
  TRACK 66 AUDIO
    TITLE "0:"
    INDEX 01 01:08:21
  TRACK 67 AUDIO
    TITLE "6:cjc030_11427"
    INDEX 01 01:08:31
  TRACK 68 AUDIO
    TITLE "0:"
    INDEX 01 01:11:02
